# xmcd CD database file
#
# Track frame offsets:
#	150
#	15322
#	34397
#	51585
#	60812
#	74832
#	97015
#	113982
#	129305
#	135757
#	152610
#	167487
#	183995
#	204910
#	219207
#	240825
#
# Disc length: 3457 seconds
#
# Revision: 0
# Processed by: cddbd v1.5.2PL0 Copyright (c) Steve Scherf et al.
# Submitted via: CDex 1.79
#
DISCID=cc0d7f10
DTITLE=Various Artist - "This Is Jazz" The Historic Broadcasts - Vol. 2 - CD 2
DYEAR=1947
DGENRE=Jazz
TTITLE0=Program Introduction
TTITLE1=Sensation Rag
TTITLE2=You're Some Pretty Doll
TTITLE3=Twelfth Street Rag
TTITLE4=Buddy Bolden's Blues
TTITLE5=Black And Blue
TTITLE6=Summertime
TTITLE7=Farewell Blues
TTITLE8=Program Introduction
TTITLE9=The Sheik Of Araby
TTITLE10=Sweet Lorraine
TTITLE11=At Sundown
TTITLE12=Sweet Lovin' Man
TTITLE13=Little Rock Getaway
TTITLE14=Ad Lib Blues
TTITLE15=I Found A New Baby
EXTD=YEAR: 1947
EXTT0=
EXTT1=
EXTT2=
EXTT3=
EXTT4=
EXTT5=
EXTT6=
EXTT7=
EXTT8=
EXTT9=
EXTT10=
EXTT11=
EXTT12=
EXTT13=
EXTT14=
EXTT15=
PLAYORDER=
